<svg width="406" height="442" viewBox="0 0 406 442" fill="none" xmlns="http://www.w3.org/2000/svg">
<path d="M249.995 198.303C255.499 212.156 277.178 235.861 289.8 244.333C298.636 250.263 300.674 252.885 303.383 254.055C306.652 255.465 309.325 257.996 310.488 261.358C312.255 266.45 313.438 272.022 313.715 277.415C313.512 281.935 312.514 284.435 311.184 285.82C308.851 288.252 304.695 286.62 304.337 283.265C303.457 274.953 302.971 273.093 299.326 268.808C290.564 258.495 287.738 259.978 281.975 259.301C266.945 257.94 231.493 233.798 229.313 257.867C228.826 265.126 225.274 272.416 221.389 279.115C223.285 285.789 221.198 293.769 220.551 299.427C220.323 301.422 218.526 302.555 216.617 301.933C211.34 300.215 212.018 292.254 208.982 284.428C207.701 281.134 207.504 277.551 208.003 274.054C208.717 269.029 208.292 263.796 206.242 259.591C198.7 240.196 200.011 234.716 201.138 227.198C201.433 225.222 202.025 223.3 202.726 221.429C204.506 216.688 203.933 210.574 197.77 205.845C191.908 197.151 212.978 163.127 212.978 163.127C212.978 163.127 244.49 184.437 249.989 198.296L249.995 198.303Z" fill="#E8E8E8"/>
<path d="M-64 83.3182L177.501 208.942L208.311 149.803L0.80986 0L-64 83.3182Z" fill="#A95BFF"/>
<path d="M206.076 154.106L213.871 159.186L196.385 210.493L181.14 201.627L206.076 154.106Z" fill="#7B8CD2"/>
<path d="M34.4462 136.084C45.0426 143.435 57.0736 148.946 68.4582 154.968C80.2798 161.217 92.1508 167.368 103.966 173.624C115.431 179.695 126.871 185.84 138.434 191.732C150.385 197.821 162.644 203.295 174.601 209.261C175.42 209.674 176.14 208.479 175.327 208.018C163.697 201.503 152.318 194.466 140.595 188.031C128.878 181.597 117.019 175.422 105.204 169.172C93.7331 163.107 82.324 156.938 70.8594 150.861C59.3395 144.759 47.8626 137.857 35.6776 133.172C33.8921 132.488 33.0609 135.117 34.4524 136.084H34.4462Z" fill="#18203A"/>
<path d="M217.584 293.128C216.777 293.331 215.977 293.534 215.17 293.737C214.597 293.885 213.815 293.941 213.304 294.242C212.369 294.796 212.861 295.936 213.114 296.761C213.742 298.817 215.349 301.206 217.842 300.609C218.396 300.473 218.298 299.525 217.707 299.587C215.459 299.833 214.487 297.967 213.939 296.071C213.618 294.969 214.203 294.913 215.164 294.649C216.044 294.402 216.925 294.156 217.799 293.91C218.298 293.768 218.088 292.999 217.584 293.128Z" fill="#18203A"/>
<path d="M314.164 278.609C313.148 278.585 312.132 278.56 311.116 278.529C310.31 278.505 309.325 278.295 308.543 278.492C307.342 278.794 307.299 280.235 307.422 281.263C307.712 283.714 309.737 286.041 312.256 286.281C312.828 286.337 312.914 285.45 312.391 285.302C310.378 284.73 308.764 283.369 308.457 281.189C308.358 280.475 308.241 279.73 309.085 279.391C309.473 279.237 310.205 279.373 310.612 279.367C311.8 279.348 312.982 279.336 314.17 279.324C314.632 279.324 314.632 278.616 314.17 278.609H314.164Z" fill="#18203A"/>
<path d="M229.208 259.812C231.727 252.424 236.541 245.903 244.306 243.878C245.568 243.551 245.352 241.452 243.992 241.55C234.349 242.264 230.47 251.531 228.476 259.609C228.359 260.083 229.048 260.268 229.202 259.812H229.208Z" fill="#18203A"/>
<path d="M230.834 253.599C236.572 249.246 241.96 246.457 249.354 246.58C250.315 246.598 250.284 245.188 249.354 245.102C242.428 244.493 234.399 247.22 230.458 253.217C230.31 253.439 230.612 253.765 230.84 253.599H230.834Z" fill="#18203A"/>
<path d="M200.769 209.372C205.276 217.296 201.39 225.701 200.147 233.927C199.248 239.899 200.307 245.465 202.234 251.118C204.451 257.626 207.603 264.041 207.831 271.036C208.015 276.811 205.744 282.993 209.401 288.042C210.017 288.898 211.402 288.411 211.143 287.309C209.536 280.444 211.513 273.739 210.343 266.861C209.204 260.162 206.045 254.067 204.118 247.596C201.637 239.253 203.644 232.283 204.703 223.958C205.411 218.392 205.005 213.461 201.914 208.695C201.452 207.981 200.338 208.615 200.762 209.366L200.769 209.372Z" fill="#18203A"/>
<path d="M279.691 293.701C272.665 279.41 242.366 289.773 248.302 305.966C251.152 313.736 260.69 315.103 267.462 317.609C270.627 318.779 273.81 319.961 274.722 323.397C275.873 327.75 271.637 331.906 267.401 332.669C260.911 333.839 255.69 328.827 251.516 324.622C248.622 321.71 244.078 326.247 247.009 329.129C253.024 335.052 260.567 340.747 269.568 338.636C276.686 336.967 283.89 328.144 280.94 320.669C277.973 313.145 268.189 311.667 261.57 309.205C258.935 308.226 254.791 306.594 253.978 303.521C252.827 299.168 257.463 295.69 260.954 294.421C267.155 292.174 271.914 294.748 277.831 296.121C279.29 296.459 280.331 294.988 279.697 293.695L279.691 293.701Z" fill="white"/>
<path d="M263.799 284.613C263.189 302.985 262.087 321.802 263.269 340.162C263.411 342.317 266.483 342.323 266.625 340.162C267.795 321.802 266.68 302.985 266.065 284.613C266.016 283.16 263.854 283.153 263.805 284.613H263.799Z" fill="white"/>
<path d="M308.383 256.093C306.616 256.025 304.935 256.801 303.833 258.186C303.383 258.747 304.19 259.381 304.621 258.796C305.507 257.571 306.893 256.955 308.389 256.998C308.968 257.017 308.968 256.118 308.389 256.099L308.383 256.093Z" fill="#18203A"/>
<path d="M308.783 257.866C307.755 258.384 306.733 258.901 305.723 259.455C305.015 259.843 305.637 260.877 306.351 260.532C307.385 260.034 308.407 259.498 309.429 258.968C310.156 258.587 309.516 257.497 308.789 257.866H308.783Z" fill="#18203A"/>
<path d="M210.398 283.825C212.208 283.93 213.84 283.609 215.435 282.741C216.352 282.243 215.539 280.857 214.616 281.344C213.329 282.021 211.851 282.39 210.392 282.31C209.413 282.255 209.419 283.776 210.392 283.831L210.398 283.825Z" fill="#18203A"/>
<path d="M210.109 287.556C211.624 286.86 213.28 286.275 214.721 285.45C215.262 285.142 214.899 284.182 214.283 284.416C212.683 285.025 211.143 285.943 209.604 286.688C209.019 286.971 209.53 287.814 210.109 287.55V287.556Z" fill="#18203A"/>
<circle cx="263.5" cy="313.5" r="42.5" fill="#7950DD"/>
<path d="M256.574 338.751C256.574 339.674 255.944 339.982 255 339.982C243.352 336.287 235.167 325.817 235.167 313.5C235.167 301.183 243.352 290.713 255 287.018C255.944 286.71 256.574 287.326 256.574 288.249V290.405C256.574 291.021 256.259 291.637 255.63 291.945C246.5 295.332 240.204 303.646 240.204 313.5C240.204 323.354 246.815 331.976 255.63 335.055C256.259 335.363 256.574 335.979 256.574 336.595V338.751Z" fill="white"/>
<path d="M266.018 331.052C266.018 331.668 265.389 332.284 264.759 332.284H262.241C261.611 332.284 260.981 331.668 260.981 331.052V327.357C255.944 326.741 253.426 323.97 252.481 319.967C252.481 319.351 252.796 318.735 253.426 318.735H256.259C256.889 318.735 257.204 319.043 257.518 319.659C258.148 321.814 259.407 323.662 263.5 323.662C266.648 323.662 268.852 322.122 268.852 319.659C268.852 317.195 267.593 316.271 263.185 315.656C256.574 314.732 253.426 312.884 253.426 307.649C253.426 303.646 256.574 300.567 260.981 299.951V296.256C260.981 295.64 261.611 295.024 262.241 295.024H264.759C265.389 295.024 266.018 295.64 266.018 296.256V299.951C269.796 300.567 272.315 302.722 272.944 306.11C272.944 306.725 272.63 307.341 272 307.341H269.481C268.852 307.341 268.537 307.033 268.222 306.418C267.593 304.262 266.018 303.338 263.185 303.338C260.037 303.338 258.463 304.878 258.463 307.033C258.463 309.189 259.407 310.421 264.13 311.037C270.741 311.96 273.889 313.808 273.889 319.043C273.889 323.046 270.741 326.433 266.018 327.357V331.052Z" fill="white"/>
<path d="M272 339.982C271.056 340.29 270.426 339.674 270.426 338.751V336.595C270.426 335.979 270.741 335.363 271.37 335.055C280.5 331.668 286.796 323.354 286.796 313.5C286.796 303.646 280.185 295.024 271.37 291.945C270.741 291.637 270.426 291.021 270.426 290.405V288.249C270.426 287.326 271.056 287.018 272 287.018C283.333 290.713 291.833 301.183 291.833 313.5C291.833 325.817 283.648 336.287 272 339.982Z" fill="white"/>
<rect x="136" y="356" width="85" height="85" rx="42.5" fill="#7950DD"/>
<path d="M179.324 401.345H194.433C194.755 401.345 194.907 401.345 194.931 400.923C195.054 399.386 195.054 397.84 194.931 396.301C194.931 396.002 194.782 395.878 194.458 395.878H164.389C164.017 395.878 163.916 396.002 163.916 396.351V400.774C163.916 401.345 163.916 401.345 164.512 401.345H179.324ZM193.243 390.709C193.286 390.596 193.286 390.473 193.243 390.362C192.991 389.813 192.692 389.288 192.345 388.796C191.822 387.955 191.207 387.181 190.506 386.485C190.175 386.064 189.792 385.687 189.362 385.366C187.211 383.536 184.655 382.24 181.906 381.589C180.519 381.278 179.102 381.129 177.682 381.142H164.337C163.965 381.142 163.915 381.29 163.915 381.614V390.435C163.915 390.808 163.915 390.908 164.387 390.908H193.064C193.064 390.908 193.313 390.858 193.363 390.709H193.241H193.243ZM193.243 406.514C192.821 406.468 192.395 406.468 191.973 406.514H164.414C164.042 406.514 163.916 406.514 163.916 407.012V415.636C163.916 416.033 163.916 416.133 164.414 416.133H177.138C177.746 416.18 178.354 416.137 178.95 416.01C180.797 415.878 182.613 415.477 184.345 414.817C184.975 414.598 185.583 414.314 186.158 413.972H186.331C189.314 412.421 191.737 409.984 193.265 406.992C193.265 406.992 193.438 406.616 193.243 406.518V406.514ZM158.922 420.605V420.456V414.666V412.703V406.863C158.922 406.539 158.922 406.491 158.525 406.491H153.132C152.833 406.491 152.71 406.491 152.71 406.094V401.372H158.475C158.797 401.372 158.922 401.372 158.922 400.949V396.277C158.922 395.979 158.922 395.905 158.525 395.905H153.132C152.833 395.905 152.71 395.905 152.71 395.508V391.135C152.71 390.861 152.71 390.788 153.107 390.788H158.45C158.822 390.788 158.922 390.788 158.922 390.316V376.921C158.922 376.524 158.922 376.423 159.42 376.423H178.057C179.41 376.477 180.754 376.626 182.083 376.871C184.823 377.377 187.455 378.356 189.861 379.753C191.457 380.693 192.926 381.827 194.234 383.133C195.219 384.155 196.106 385.261 196.893 386.438C197.675 387.632 198.325 388.907 198.835 390.24C198.897 390.588 199.23 390.822 199.577 390.763H204.026C204.596 390.763 204.596 390.763 204.621 391.31V395.386C204.621 395.784 204.473 395.884 204.074 395.884H200.644C200.297 395.884 200.196 395.884 200.222 396.331C200.357 397.845 200.357 399.364 200.222 400.878C200.222 401.3 200.222 401.35 200.696 401.35H204.62C204.793 401.574 204.62 401.798 204.62 402.023C204.645 402.311 204.645 402.603 204.62 402.891V405.899C204.62 406.321 204.496 406.446 204.122 406.446H199.425C199.098 406.384 198.779 406.593 198.704 406.919C197.586 409.826 195.797 412.433 193.485 414.523C192.64 415.284 191.753 415.999 190.826 416.66C189.831 417.232 188.863 417.828 187.843 418.3C185.966 419.145 183.998 419.768 181.978 420.163C180.06 420.507 178.115 420.662 176.162 420.635H158.915V420.61L158.922 420.605Z" fill="white"/>
<rect x="221" y="356" width="85" height="85" rx="42.5" fill="#7950DD"/>
<path d="M263.47 375.534C269.751 375.534 276.031 375.534 282.331 375.534C282.891 375.534 283.046 375.669 283.046 376.239C283.046 378.993 283.046 381.737 283.046 384.481C283.046 385.013 282.891 385.129 282.389 385.119C278.031 385.119 273.693 385.119 269.306 385.119C268.736 385.119 268.62 385.273 268.63 385.805C268.668 387.46 268.668 389.113 268.63 390.762C268.63 391.283 268.736 391.448 269.296 391.477C273.885 391.628 278.446 392.243 282.911 393.313C284.378 393.653 285.799 394.169 287.143 394.849C287.684 395.116 288.175 395.476 288.592 395.912C288.751 396.054 288.879 396.228 288.966 396.423C289.053 396.618 289.098 396.829 289.098 397.042C289.098 397.256 289.053 397.467 288.966 397.661C288.879 397.856 288.751 398.03 288.592 398.173C287.775 398.968 286.782 399.561 285.694 399.902C283.044 400.843 280.3 401.491 277.51 401.835C274.751 402.257 271.97 402.515 269.181 402.608C268.659 402.608 268.659 402.878 268.659 403.265C268.659 409.526 268.659 415.826 268.659 422.049C268.659 422.686 268.494 422.822 267.876 422.822C264.861 422.822 261.837 422.822 258.822 422.822C258.31 422.822 258.214 422.677 258.214 422.203C258.214 416 258.214 409.806 258.214 403.603C258.214 402.637 258.214 402.637 257.247 402.637C252.735 402.438 248.253 401.797 243.865 400.724C242.208 400.365 240.619 399.742 239.159 398.878C237.227 397.67 237.227 396.327 239.159 395.139C241.107 394.039 243.233 393.29 245.44 392.926C249.465 392.085 253.554 391.584 257.663 391.428C258.136 391.428 258.243 391.274 258.233 390.829C258.233 389.148 258.233 387.476 258.233 385.805C258.233 385.264 258.127 385.08 257.537 385.09C253.189 385.09 248.841 385.09 244.503 385.09C243.913 385.09 243.807 384.906 243.807 384.365C243.807 381.64 243.807 378.916 243.807 376.181C243.807 375.582 244 375.495 244.532 375.495C250.851 375.543 257.16 375.534 263.47 375.534ZM263.808 401.004C267.105 401.039 270.401 400.897 273.683 400.579C276.619 400.339 279.528 399.848 282.379 399.11C283.528 398.848 284.627 398.404 285.636 397.796C286.921 396.955 286.901 396.066 285.636 395.226C285.009 394.808 284.326 394.483 283.606 394.26C278.841 392.947 273.93 392.236 268.987 392.143C268.533 392.143 268.61 392.395 268.61 392.656C268.61 394.588 268.61 396.578 268.61 398.54C268.61 398.984 268.504 399.168 268.04 399.187C264.919 399.303 261.798 399.323 258.677 399.187C258.272 399.187 258.175 399.023 258.175 398.637C258.175 396.646 258.175 394.665 258.175 392.685C258.175 392.24 258.049 392.143 257.615 392.153C255.47 392.25 253.324 392.433 251.189 392.685C248.475 392.955 245.795 393.496 243.189 394.298C242.418 394.513 241.682 394.839 241.005 395.264C239.836 396.066 239.845 396.936 241.005 397.738C241.457 398.034 241.94 398.28 242.445 398.472C244.15 399.1 245.914 399.556 247.711 399.835C253.031 400.699 258.418 401.09 263.808 401.004Z" fill="white"/>
<g clip-path="url(#clip0_1656_1084)">
<path d="M348.5 441C371.972 441 391 421.972 391 398.5C391 375.028 371.972 356 348.5 356C325.028 356 306 375.028 306 398.5C306 421.972 325.028 441 348.5 441Z" fill="#7950DD"/>
<path fill-rule="evenodd" clip-rule="evenodd" d="M330.412 387.705L348.517 369.6L355.736 376.819L337.631 394.924L330.412 387.705ZM330.426 409.34L359.359 380.407L366.578 387.626L337.645 416.559L330.426 409.34ZM370.181 391.248L341.247 420.182L348.466 427.4L377.4 398.467L370.181 391.248ZM319.6 398.515L326.819 391.296L334.038 398.515L326.819 405.734L319.6 398.515Z" fill="white"/>
</g>
<defs>
<clipPath id="clip0_1656_1084">
<rect width="85" height="85" fill="white" transform="translate(306 356)"/>
</clipPath>
</defs>
</svg>
