<svg width="60" height="60" viewBox="0 0 60 60" fill="none" xmlns="http://www.w3.org/2000/svg">
<line x1="1" y1="4.37114e-08" x2="0.999997" y2="60" stroke="#A95BFF" stroke-width="2"/>
<line y1="59" x2="60" y2="59" stroke="#A95BFF" stroke-width="2"/>
<path d="M36.6904 17.7783H38.8562V20.3512C39.9572 20.4763 40.7603 20.8425 41.2657 21.45C41.7891 22.0575 42.0689 22.9687 42.1049 24.1837C42.123 24.7197 42.123 25.3182 42.1049 25.9793C42.1049 26.6225 42.0959 27.2926 42.0779 27.9894H39.7767C39.7947 27.2032 39.8038 26.4796 39.8038 25.8185C39.8218 25.1574 39.8128 24.5053 39.7767 23.8621C39.7586 23.2903 39.5962 22.8883 39.2894 22.656C38.9826 22.4238 38.4772 22.3076 37.7733 22.3076C37.0875 22.3076 36.5911 22.4238 36.2843 22.656C35.9775 22.8883 35.806 23.2903 35.7699 23.8621C35.7158 24.5232 35.6887 25.1574 35.6887 25.7649C35.7068 26.3724 35.7338 27.0067 35.7699 27.6678C35.788 28.4003 35.8963 28.9453 36.0948 29.3026C36.2933 29.6421 36.6363 29.8744 37.1236 29.9994L38.6396 30.321C39.9391 30.6248 40.8416 31.1251 41.3469 31.8219C41.8703 32.5008 42.1501 33.5014 42.1862 34.8235C42.2223 35.3596 42.2313 35.9313 42.2132 36.5388C42.2132 37.1284 42.2042 37.6823 42.1862 38.2004C42.132 39.4333 41.8432 40.3534 41.3198 40.9609C40.8145 41.5684 39.9933 41.9347 38.8562 42.0597V44.445H36.6904V42.0597C35.5714 41.9347 34.7502 41.5684 34.2268 40.9609C33.7214 40.3356 33.4507 39.4154 33.4146 38.2004C33.3785 37.4857 33.3604 36.8157 33.3604 36.1904C33.3785 35.565 33.4056 34.8861 33.4417 34.1535H35.7429C35.7068 34.9218 35.6797 35.6633 35.6616 36.378C35.6616 37.0927 35.6887 37.8163 35.7429 38.5488C35.7609 39.1206 35.9233 39.5226 36.2302 39.7549C36.555 39.9871 37.0784 40.1033 37.8004 40.1033C38.4862 40.1033 38.9735 39.9871 39.2623 39.7549C39.5691 39.5226 39.7496 39.1206 39.8038 38.5488C39.8399 37.9771 39.8579 37.3607 39.8579 36.6996C39.8579 36.0206 39.8399 35.3953 39.8038 34.8235C39.7677 34.1446 39.6143 33.6354 39.3435 33.2959C39.0908 32.9386 38.6667 32.6884 38.0711 32.5455L36.4197 32.1435C35.2826 31.8755 34.4975 31.402 34.0643 30.723C33.6312 30.0262 33.3965 29.0078 33.3604 27.6678C33.3424 27.1139 33.3334 26.5511 33.3334 25.9793C33.3514 25.3897 33.3604 24.7912 33.3604 24.1837C33.4146 22.9687 33.6943 22.0575 34.1997 21.45C34.7231 20.8425 35.5533 20.4763 36.6904 20.3512V17.7783Z" fill="#A95BFF"/>
<path opacity="0.6" d="M25.5793 17.7783H27.7451V20.3512C28.846 20.4763 29.6492 20.8425 30.1545 21.45C30.678 22.0575 30.9577 22.9687 30.9938 24.1837C31.0119 24.7197 31.0119 25.3182 30.9938 25.9793C30.9938 26.6225 30.9848 27.2926 30.9667 27.9894H28.6655C28.6836 27.2032 28.6926 26.4796 28.6926 25.8185C28.7107 25.1574 28.7016 24.5053 28.6655 23.8621C28.6475 23.2903 28.4851 22.8883 28.1782 22.656C27.8714 22.4238 27.3661 22.3076 26.6622 22.3076C25.9763 22.3076 25.48 22.4238 25.1732 22.656C24.8663 22.8883 24.6949 23.2903 24.6588 23.8621C24.6046 24.5232 24.5776 25.1574 24.5776 25.7649C24.5956 26.3724 24.6227 27.0067 24.6588 27.6678C24.6768 28.4003 24.7851 28.9453 24.9837 29.3026C25.1822 29.6421 25.5251 29.8744 26.0124 29.9994L27.5285 30.321C28.828 30.6248 29.7304 31.1251 30.2358 31.8219C30.7592 32.5008 31.0389 33.5014 31.075 34.8235C31.1111 35.3596 31.1201 35.9313 31.1021 36.5388C31.1021 37.1284 31.0931 37.6823 31.075 38.2004C31.0209 39.4333 30.7321 40.3534 30.2087 40.9609C29.7033 41.5684 28.8821 41.9347 27.7451 42.0597V44.445H25.5793V42.0597C24.4602 41.9347 23.639 41.5684 23.1156 40.9609C22.6103 40.3356 22.3395 39.4154 22.3034 38.2004C22.2674 37.4857 22.2493 36.8157 22.2493 36.1904C22.2674 35.565 22.2944 34.8861 22.3305 34.1535H24.6317C24.5956 34.9218 24.5685 35.6633 24.5505 36.378C24.5505 37.0927 24.5776 37.8163 24.6317 38.5488C24.6498 39.1206 24.8122 39.5226 25.119 39.7549C25.4439 39.9871 25.9673 40.1033 26.6892 40.1033C27.3751 40.1033 27.8624 39.9871 28.1512 39.7549C28.458 39.5226 28.6385 39.1206 28.6926 38.5488C28.7287 37.9771 28.7468 37.3607 28.7468 36.6996C28.7468 36.0206 28.7287 35.3953 28.6926 34.8235C28.6565 34.1446 28.5031 33.6354 28.2324 33.2959C27.9797 32.9386 27.5556 32.6884 26.96 32.5455L25.3085 32.1435C24.1715 31.8755 23.3864 31.402 22.9532 30.723C22.52 30.0262 22.2854 29.0078 22.2493 27.6678C22.2313 27.1139 22.2222 26.5511 22.2222 25.9793C22.2403 25.3897 22.2493 24.7912 22.2493 24.1837C22.3034 22.9687 22.5832 22.0575 23.0886 21.45C23.612 20.8425 24.4422 20.4763 25.5793 20.3512V17.7783Z" fill="#A95BFF"/>
<path opacity="0.2" d="M14.4682 17.7783H16.634V20.3512C17.7349 20.4763 18.5381 20.8425 19.0435 21.45C19.5669 22.0575 19.8466 22.9687 19.8827 24.1837C19.9008 24.7197 19.9008 25.3182 19.8827 25.9793C19.8827 26.6225 19.8737 27.2926 19.8556 27.9894H17.5545C17.5725 27.2032 17.5815 26.4796 17.5815 25.8185C17.5996 25.1574 17.5906 24.5053 17.5545 23.8621C17.5364 23.2903 17.374 22.8883 17.0672 22.656C16.7603 22.4238 16.255 22.3076 15.5511 22.3076C14.8652 22.3076 14.3689 22.4238 14.0621 22.656C13.7553 22.8883 13.5838 23.2903 13.5477 23.8621C13.4935 24.5232 13.4665 25.1574 13.4665 25.7649C13.4845 26.3724 13.5116 27.0067 13.5477 27.6678C13.5657 28.4003 13.674 28.9453 13.8726 29.3026C14.0711 29.6421 14.414 29.8744 14.9013 29.9994L16.4174 30.321C17.7169 30.6248 18.6193 31.1251 19.1247 31.8219C19.6481 32.5008 19.9278 33.5014 19.9639 34.8235C20 35.3596 20.0091 35.9313 19.991 36.5388C19.991 37.1284 19.982 37.6823 19.9639 38.2004C19.9098 39.4333 19.621 40.3534 19.0976 40.9609C18.5923 41.5684 17.771 41.9347 16.634 42.0597V44.445H14.4682V42.0597C13.3492 41.9347 12.528 41.5684 12.0045 40.9609C11.4992 40.3356 11.2285 39.4154 11.1924 38.2004C11.1563 37.4857 11.1382 36.8157 11.1382 36.1904C11.1563 35.565 11.1833 34.8861 11.2194 34.1535H13.5206C13.4845 34.9218 13.4575 35.6633 13.4394 36.378C13.4394 37.0927 13.4665 37.8163 13.5206 38.5488C13.5387 39.1206 13.7011 39.5226 14.0079 39.7549C14.3328 39.9871 14.8562 40.1033 15.5782 40.1033C16.264 40.1033 16.7513 39.9871 17.0401 39.7549C17.3469 39.5226 17.5274 39.1206 17.5815 38.5488C17.6176 37.9771 17.6357 37.3607 17.6357 36.6996C17.6357 36.0206 17.6176 35.3953 17.5815 34.8235C17.5454 34.1446 17.392 33.6354 17.1213 33.2959C16.8686 32.9386 16.4445 32.6884 15.8489 32.5455L14.1974 32.1435C13.0604 31.8755 12.2753 31.402 11.8421 30.723C11.4089 30.0262 11.1743 29.0078 11.1382 27.6678C11.1202 27.1139 11.1111 26.5511 11.1111 25.9793C11.1292 25.3897 11.1382 24.7912 11.1382 24.1837C11.1924 22.9687 11.4721 22.0575 11.9775 21.45C12.5009 20.8425 13.3311 20.4763 14.4682 20.3512V17.7783Z" fill="#A95BFF"/>
</svg>
