<svg width="523" height="248" viewBox="0 0 523 248" fill="none" xmlns="http://www.w3.org/2000/svg">
<path d="M245.185 175.277C222.494 179.302 208.469 167.28 170.725 197.981C139.441 221.876 98.2482 186.737 86.3039 193.563C74.3531 200.39 133.61 235.535 165.79 242.656C190.68 246.93 187.539 233.519 249.884 233.519C249.884 233.519 245.774 200.449 245.192 175.284L245.185 175.277Z" fill="#A95BFF"/>
<path d="M176.969 243.395C176.969 243.395 159.239 244.155 135.691 236.576C128.996 234.416 121.822 231.589 114.46 227.871C92.6655 215.344 101.606 211.948 107.732 216.915C113.851 221.883 131.201 219.978 131.201 219.978L176.975 243.395H176.969Z" fill="#A95BFF"/>
<path d="M192.709 231.432C192.709 231.432 161.209 235.182 127.948 218.402C94.6943 201.621 99.5636 189.696 107.097 193.204C125.481 202.321 158.375 203.996 181.321 192.589C186.426 200.41 192.709 231.432 192.709 231.432Z" fill="#A95BFF"/>
<path d="M266.659 171.966L271.58 241.458L247.024 243.991L241.363 173.792L266.659 171.966Z" fill="#E8E8E8"/>
<path d="M528.993 23.0518L386.808 152.796C381.834 157.338 375.525 160.152 368.823 160.826L258.065 171.959L263.831 247.099H392.685C402.299 247.099 411.724 244.403 419.892 239.324L529 177.607V23.0518H528.993Z" fill="#7B8CD2"/>
<path d="M218.666 176.227C218.666 176.227 202.206 160.598 173.991 180.527C158.486 191.483 139.657 188.341 143.263 194.84C146.869 201.339 179.907 216.772 196.505 200.534C213.109 184.29 218.659 176.227 218.659 176.227H218.666Z" fill="#A95BFF"/>
<path d="M257.81 174.014C257.948 196.365 258.654 218.768 259.761 241.092C259.891 243.775 264.08 243.788 263.949 241.092C262.837 218.722 261.318 196.319 259.243 174.014C259.158 173.111 257.804 173.072 257.81 174.014Z" fill="#18203A"/>
<path d="M143.905 191.842C152.747 189.853 161.484 187.529 169.599 183.413C174.286 181.037 178.553 177.83 183.33 175.644C191.197 172.051 201.662 170.67 209.961 173.275C214.13 174.584 217.475 177.404 221.899 177.876C225.78 178.295 229.884 177.843 233.712 177.234C234.89 177.044 234.57 175.205 233.437 175.199C227.501 175.146 222.344 175.971 216.728 173.491C213.443 172.038 210.57 170.604 206.944 170.009C199.503 168.791 190.935 169.983 183.952 172.843C179.318 174.741 175.352 177.797 171.072 180.33C162.59 185.35 153.139 188.452 143.623 190.834C142.969 190.998 143.244 191.993 143.905 191.849V191.842Z" fill="#E8E8E8"/>
<path d="M102.921 192.974C109.911 195.991 117.68 197.575 125.147 198.891C133.027 200.278 141.346 201.581 149.343 200.782C150.397 200.678 150.443 199.12 149.343 199.107C133.44 198.878 118.694 195.239 103.19 192.339C102.83 192.274 102.535 192.811 102.921 192.974Z" fill="#E8E8E8"/>
<path d="M82.796 193.616C89.8513 191.803 96.9655 194.545 103.451 197.209C110.088 199.932 116.639 202.536 123.662 204.133C136.948 207.164 151.274 207.504 164.521 204.074C165.463 203.832 165.057 202.464 164.122 202.635C147.72 205.593 131.574 205.331 115.585 200.246C105.153 196.927 93.8044 189.46 82.495 192.523C81.7947 192.713 82.0892 193.786 82.796 193.609V193.616Z" fill="#E8E8E8"/>
<path d="M82.6455 198.885C90.7153 199.166 97.9996 202.713 105.31 205.757C114.119 209.428 122.981 213.309 132.026 216.379C136.81 218.002 139.867 217.779 144.592 216.68C152.19 214.913 159.566 214.657 167.302 215.678C168.363 215.816 168.631 213.944 167.558 213.794C161 212.851 154.481 212.799 147.956 214.003C145.626 214.435 143.355 215.142 141.025 215.58C136.915 216.353 133.237 214.887 129.395 213.447C120.337 210.05 111.331 206.516 102.352 202.929C95.938 200.37 89.6615 198.04 82.6455 198.21C82.207 198.224 82.207 198.878 82.6455 198.891V198.885Z" fill="#E8E8E8"/>
<path d="M101.206 214.356C100.892 214.108 101.259 214.343 101.75 214.415C102.358 214.5 102.967 214.612 103.569 214.723C105.572 215.096 107.561 215.567 109.531 216.084C114.996 217.498 120.415 219.232 125.743 221.091C131.195 222.995 136.227 225.712 142.039 226.137C149.854 226.713 157.138 226.13 163.997 230.653C164.684 231.104 165.286 230.025 164.638 229.56C157.635 224.54 149.67 225.43 141.535 224.782C137.399 224.455 134.042 222.779 130.219 221.379C126.639 220.07 123.007 218.885 119.348 217.799C114.034 216.222 108.464 214.527 102.947 213.82C102.45 213.754 99.0662 213.643 100.873 214.788C101.128 214.952 101.442 214.559 101.2 214.363L101.206 214.356Z" fill="#E8E8E8"/>
<path d="M171.556 194.14C186.891 202.458 205.982 201.031 219.49 189.735C220.662 188.76 218.999 187.189 217.841 188.086C204.83 198.145 187.179 200.246 172.401 192.693C171.445 192.202 170.601 193.623 171.556 194.14Z" fill="#E8E8E8"/>
<path d="M168.205 196.836C176.576 209.86 191.544 214.488 206.126 216.687C207.094 216.831 207.533 215.365 206.538 215.188C192.349 212.642 177.78 208.983 169.416 196.129C168.925 195.377 167.714 196.077 168.205 196.836Z" fill="#E8E8E8"/>
<path d="M276.587 170.958C300.875 169.773 325.156 166.736 349.365 164.452C358.639 163.575 368.11 162.868 377.004 159.903C386.01 156.906 392.947 151.317 399.518 144.648C414.911 129.032 430.409 113.619 446.627 98.8406C463.912 83.0873 482.087 68.3484 499.398 52.6409C501.073 51.116 498.658 48.8711 496.963 50.2063C462.937 77.0203 430.684 107.205 400.637 138.378C393.052 146.251 385.78 153.411 375.093 156.854C364.87 160.152 353.92 160.735 343.305 161.821C321 164.118 298.519 165.781 276.338 169.066C275.272 169.223 275.527 170.997 276.594 170.945L276.587 170.958Z" fill="#E8E8E8"/>
<path d="M276.149 239.076C282.242 239.076 282.255 229.605 276.149 229.605C270.042 229.605 270.042 239.076 276.149 239.076Z" fill="#18203A"/>
<path d="M274.506 223.29C276.875 223.29 279.146 221.209 279.035 218.761C278.924 216.307 277.045 214.232 274.506 214.232C272.137 214.232 269.866 216.314 269.977 218.761C270.088 221.216 271.966 223.29 274.506 223.29Z" fill="#18203A"/>
<circle cx="152.5" cy="110.5" r="61.5" fill="#7950DD"/>
<path d="M142.478 147.039C142.478 148.376 141.567 148.822 140.2 148.822C123.344 143.474 111.5 128.324 111.5 110.5C111.5 92.676 123.344 77.5256 140.2 72.1784C141.567 71.7328 142.478 72.624 142.478 73.9608V77.08C142.478 77.9712 142.022 78.8624 141.111 79.308C127.9 84.2096 118.789 96.2408 118.789 110.5C118.789 124.759 128.356 137.236 141.111 141.692C142.022 142.138 142.478 143.029 142.478 143.92V147.039Z" fill="white"/>
<path d="M156.144 135.899C156.144 136.79 155.233 137.681 154.322 137.681H150.678C149.767 137.681 148.855 136.79 148.855 135.899V130.552C141.567 129.66 137.922 125.65 136.555 119.857C136.555 118.966 137.011 118.075 137.922 118.075H142.022C142.933 118.075 143.389 118.52 143.844 119.412C144.755 122.531 146.578 125.204 152.5 125.204C157.055 125.204 160.244 122.976 160.244 119.412C160.244 115.847 158.422 114.51 152.044 113.619C142.478 112.282 137.922 109.608 137.922 102.033C137.922 96.2405 142.478 91.7845 148.855 90.8933V85.5461C148.855 84.6549 149.767 83.7637 150.678 83.7637H154.322C155.233 83.7637 156.144 84.6549 156.144 85.5461V90.8933C161.611 91.7845 165.255 94.9037 166.167 99.8053C166.167 100.696 165.711 101.588 164.8 101.588H161.155C160.244 101.588 159.789 101.142 159.333 100.251C158.422 97.1317 156.144 95.7949 152.044 95.7949C147.489 95.7949 145.211 98.0229 145.211 101.142C145.211 104.261 146.578 106.044 153.411 106.935C162.978 108.272 167.533 110.945 167.533 118.52C167.533 124.313 162.978 129.215 156.144 130.552V135.899Z" fill="white"/>
<path d="M164.8 148.822C163.433 149.267 162.522 148.376 162.522 147.039V143.92C162.522 143.029 162.978 142.138 163.889 141.692C177.1 136.791 186.211 124.759 186.211 110.5C186.211 96.2411 176.644 83.7643 163.889 79.3083C162.978 78.8627 162.522 77.9715 162.522 77.0803V73.9611C162.522 72.6243 163.433 72.1787 164.8 72.1787C181.2 77.5259 193.5 92.6763 193.5 110.5C193.5 128.324 181.655 143.475 164.8 148.822Z" fill="white"/>
<g clip-path="url(#clip0_1745_932)">
<path d="M261.5 108C284.972 108 304 88.9721 304 65.5C304 42.0279 284.972 23 261.5 23C238.028 23 219 42.0279 219 65.5C219 88.9721 238.028 108 261.5 108Z" fill="#7950DD"/>
<path fill-rule="evenodd" clip-rule="evenodd" d="M243.412 54.7046L261.517 36.5996L268.736 43.8187L250.631 61.9237L243.412 54.7046ZM243.426 76.3397L272.359 47.4061L279.578 54.6251L250.645 83.5587L243.426 76.3397ZM283.181 58.2478L254.247 87.1814L261.466 94.3996L290.4 65.4665L283.181 58.2478ZM232.6 65.5149L239.819 58.2959L247.038 65.5149L239.819 72.734L232.6 65.5149Z" fill="white"/>
</g>
<rect y="114" width="85" height="85" rx="42.5" fill="#7950DD"/>
<path d="M42.4701 133.534C48.7507 133.534 55.0312 133.534 61.3311 133.534C61.8915 133.534 62.0461 133.669 62.0461 134.239C62.0461 136.993 62.0461 139.737 62.0461 142.481C62.0461 143.013 61.8915 143.129 61.3891 143.119C57.0313 143.119 52.6929 143.119 48.3062 143.119C47.7361 143.119 47.6201 143.273 47.6298 143.805C47.6685 145.46 47.6685 147.113 47.6298 148.762C47.6298 149.283 47.7361 149.448 48.2965 149.477C52.8849 149.628 57.4463 150.243 61.9109 151.313C63.378 151.653 64.7989 152.169 66.143 152.849C66.6842 153.116 67.1746 153.476 67.5924 153.912C67.7514 154.054 67.8786 154.228 67.9657 154.423C68.0528 154.618 68.0978 154.829 68.0978 155.042C68.0978 155.256 68.0528 155.467 67.9657 155.661C67.8786 155.856 67.7514 156.03 67.5924 156.173C66.7748 156.968 65.782 157.561 64.6936 157.902C62.0443 158.843 59.2999 159.491 56.5096 159.835C53.751 160.257 50.9697 160.515 48.1806 160.608C47.6588 160.608 47.6588 160.878 47.6588 161.265C47.6588 167.526 47.6588 173.826 47.6588 180.049C47.6588 180.686 47.4945 180.822 46.8761 180.822C43.8615 180.822 40.8371 180.822 37.8225 180.822C37.3104 180.822 37.2137 180.677 37.2137 180.203C37.2137 174 37.2137 167.806 37.2137 161.603C37.2137 160.637 37.2137 160.637 36.2475 160.637C31.7349 160.438 27.2527 159.797 22.865 158.724C21.2077 158.365 19.6189 157.742 18.1594 156.878C16.227 155.67 16.227 154.327 18.1594 153.139C20.1074 152.039 22.2331 151.29 24.44 150.926C28.4651 150.085 32.5538 149.584 36.663 149.428C37.1364 149.428 37.2427 149.274 37.2331 148.829C37.2331 147.148 37.2331 145.476 37.2331 143.805C37.2331 143.264 37.1268 143.08 36.5374 143.09C32.1893 143.09 27.8412 143.09 23.5028 143.09C22.9134 143.09 22.8071 142.906 22.8071 142.365C22.8071 139.64 22.8071 136.916 22.8071 134.181C22.8071 133.582 23.0003 133.495 23.5318 133.495C29.851 133.543 36.1605 133.534 42.4701 133.534ZM42.8083 159.004C46.1052 159.039 49.4016 158.897 52.6833 158.579C55.6187 158.339 58.5281 157.848 61.3794 157.11C62.5278 156.848 63.627 156.404 64.6357 155.796C65.9208 154.955 65.9014 154.066 64.6357 153.226C64.009 152.808 63.3257 152.483 62.6066 152.26C57.8408 150.947 52.9296 150.236 47.9873 150.143C47.5332 150.143 47.6105 150.395 47.6105 150.656C47.6105 152.588 47.6105 154.578 47.6105 156.54C47.6105 156.984 47.5042 157.168 47.0404 157.187C43.9194 157.303 40.7985 157.323 37.6775 157.187C37.2717 157.187 37.1751 157.023 37.1751 156.637C37.1751 154.646 37.1751 152.665 37.1751 150.685C37.1751 150.24 37.0495 150.143 36.6147 150.153C34.4696 150.25 32.3245 150.433 30.1892 150.685C27.4754 150.955 24.7953 151.496 22.1887 152.298C21.418 152.513 20.6824 152.839 20.005 153.264C18.8358 154.066 18.8455 154.936 20.005 155.738C20.457 156.034 20.9397 156.28 21.4447 156.472C23.1505 157.1 24.9145 157.556 26.7107 157.835C32.0315 158.699 37.4184 159.09 42.8083 159.004Z" fill="white"/>
<rect x="14" width="85" height="85" rx="42.5" fill="#7950DD"/>
<path d="M57.3242 45.3453H72.4332C72.7552 45.3453 72.9073 45.3453 72.9306 44.923C73.054 43.386 73.054 41.8401 72.9306 40.3012C72.9306 40.0024 72.7821 39.879 72.4582 39.879H42.3889C42.0167 39.879 41.9165 40.0024 41.9165 40.3513V44.7745C41.9165 45.3453 41.9165 45.3453 42.5124 45.3453H57.3242ZM71.2433 34.7097C71.2862 34.5969 71.2862 34.4735 71.2433 34.3625C70.991 33.8132 70.6922 33.289 70.345 32.7969C69.8226 31.9559 69.207 31.1811 68.5056 30.4851C68.1746 30.0646 67.7917 29.6871 67.3623 29.3668C65.2115 27.5363 62.6546 26.2409 59.9062 25.5896C58.5195 25.2782 57.1024 25.1297 55.6817 25.1422H42.337C41.9648 25.1422 41.9147 25.2907 41.9147 25.6146V34.4359C41.9147 34.8081 41.9147 34.9083 42.3871 34.9083H71.0643C71.0643 34.9083 71.313 34.8582 71.3632 34.7097H71.2415H71.2433ZM71.2433 50.5146C70.821 50.4681 70.3951 50.4681 69.9729 50.5146H42.4139C42.0418 50.5146 41.9165 50.5146 41.9165 51.012V59.6365C41.9165 60.0337 41.9165 60.1339 42.4139 60.1339H55.1377C55.7461 60.1805 56.3544 60.1375 56.9503 60.0105C58.7968 59.8781 60.613 59.4773 62.345 58.817C62.9749 58.5987 63.5832 58.3142 64.1576 57.9725H64.3312C67.3139 56.4211 69.7367 53.9841 71.2647 50.9924C71.2647 50.9924 71.4383 50.6166 71.2433 50.5182V50.5146ZM36.9226 64.6054V64.4569V58.6667V56.7038V50.8635C36.9226 50.5397 36.9226 50.4914 36.5253 50.4914H31.1324C30.8335 50.4914 30.7101 50.4914 30.7101 50.0941V45.3721H36.4752C36.7973 45.3721 36.9226 45.3721 36.9226 44.9499V40.278C36.9226 39.9792 36.9226 39.9058 36.5253 39.9058H31.1324C30.8335 39.9058 30.7101 39.9058 30.7101 39.5086V35.1355C30.7101 34.8618 30.7101 34.7884 31.1073 34.7884H36.4502C36.8224 34.7884 36.9226 34.7884 36.9226 34.316V20.9213C36.9226 20.524 36.9226 20.4238 37.42 20.4238H56.0574C57.4101 20.4775 58.7539 20.626 60.0834 20.8712C62.8228 21.3775 65.4549 22.3563 67.8615 23.7537C69.4575 24.6931 70.9266 25.8275 72.2345 27.1337C73.2187 28.1554 74.1062 29.2612 74.8935 30.4386C75.6754 31.6321 76.3249 32.9078 76.8349 34.2409C76.8975 34.588 77.2303 34.8224 77.5774 34.7633H82.0256C82.5964 34.7633 82.5964 34.7633 82.6215 35.3109V39.3869C82.6215 39.7841 82.473 39.8843 82.0739 39.8843H78.6438C78.2967 39.8843 78.1965 39.8843 78.2216 40.3317C78.3576 41.8454 78.3576 43.3645 78.2216 44.8783C78.2216 45.3006 78.2216 45.3507 78.6957 45.3507H82.6197C82.7932 45.5743 82.6197 45.798 82.6197 46.0235C82.6447 46.3115 82.6447 46.6032 82.6197 46.8913V49.8991C82.6197 50.3214 82.4962 50.4466 82.1223 50.4466H77.4253C77.0979 50.384 76.7794 50.5933 76.7042 50.919C75.5859 53.8266 73.7966 56.4336 71.4848 58.5236C70.6403 59.284 69.7528 59.9997 68.8259 60.66C67.8311 61.2326 66.863 61.8284 65.8431 62.3008C63.9662 63.1453 61.9979 63.768 59.9778 64.1635C58.0597 64.507 56.1147 64.6627 54.1625 64.6358H36.9154V64.6108L36.9226 64.6054Z" fill="white"/>
<defs>
<clipPath id="clip0_1745_932">
<rect width="85" height="85" fill="white" transform="translate(219 23)"/>
</clipPath>
</defs>
</svg>
