<svg width="136" height="71" viewBox="0 0 136 71" fill="none" xmlns="http://www.w3.org/2000/svg">
<path fill-rule="evenodd" clip-rule="evenodd" d="M0 0.5H2.3482V70.5H0V0.5ZM13.7479 0.5H17.0354V70.5H13.7479V0.5ZM31.8072 0.5H27.5377V70.5H31.8072V0.5ZM41.2853 0.5H46.5368V70.5H41.2853V0.5ZM61.3094 0.5H55.076V70.5H61.3094V0.5ZM68.8234 0.5H76.0387V70.5H68.8234V0.5ZM90.811 0.5H82.6137V70.5H90.811V0.5ZM96.3616 0.5H105.541V70.5H96.3616V0.5ZM120.271 0.5H110.109V70.5H120.271V0.5ZM123.9 0.5H135.043V70.5H123.9V0.5Z" fill="#A95BFF"/>
</svg>
