<svg width="166" height="64" viewBox="0 0 166 64" fill="none" xmlns="http://www.w3.org/2000/svg">
<path d="M30.468 63.8134C32.189 63.8146 33.8731 63.3185 35.3158 62.3856C36.7585 61.4526 37.8974 60.1229 38.594 58.5583C38.6709 58.3844 38.7028 58.1942 38.687 58.0051C38.6711 57.8158 38.6082 57.6334 38.5035 57.4746C38.3989 57.3156 38.2561 57.1853 38.0881 57.0951C37.9199 57.0051 37.7318 56.9581 37.5408 56.9585H23.4016C23.2106 56.9581 23.0225 57.0051 22.8545 57.0951C22.6863 57.1853 22.5435 57.3156 22.439 57.4746C22.3344 57.6334 22.2713 57.8158 22.2555 58.0051C22.2398 58.1942 22.2717 58.3844 22.3485 58.5583C23.0454 60.1215 24.1835 61.45 25.6248 62.3828C27.066 63.3156 28.7484 63.8125 30.468 63.8134Z" fill="white"/>
<path d="M52.1609 48.4521C51.6143 48.4521 51.073 48.345 50.5681 48.137C50.0631 47.9288 49.6042 47.6238 49.2179 47.2394C48.8315 46.8548 48.5251 46.3985 48.3162 45.8962C48.1074 45.3939 48 44.8556 48.0004 44.3121V29.707C48.0004 22.057 43.1476 15.3379 36.2633 12.8751C35.917 12.7543 35.5997 12.5632 35.3316 12.314C35.0637 12.0647 34.8507 11.7627 34.7063 11.4272C34.3626 10.592 33.777 9.87712 33.0239 9.37343C32.2708 8.86974 31.3841 8.59989 30.4765 8.59815C29.5689 8.59642 28.6812 8.86288 27.9261 9.36371C27.1711 9.86452 26.5828 10.5771 26.2359 11.411C26.0948 11.7422 25.8853 12.0403 25.621 12.2858C25.3568 12.5313 25.0435 12.7189 24.7016 12.8363C21.2654 14.0249 18.2866 16.2477 16.1787 19.1962C14.0708 22.1447 12.9383 25.6725 12.9384 29.29V44.3088C12.9402 45.4021 12.5066 46.4516 11.7325 47.228C10.9584 48.0043 9.90668 48.4445 8.80718 48.4521C8.54824 48.4492 8.29124 48.497 8.05089 48.5928C7.81055 48.6888 7.5916 48.8308 7.40653 49.0109C7.22146 49.1911 7.07393 49.4057 6.97237 49.6426C6.87082 49.8793 6.81724 50.1338 6.8147 50.3914C6.8147 50.9056 7.02016 51.3988 7.38589 51.7625C7.75163 52.1262 8.2477 52.3304 8.76493 52.3304H52.1512C52.6685 52.3304 53.1645 52.1262 53.5303 51.7625C53.896 51.3988 54.1015 50.9056 54.1015 50.3914C54.1015 49.8787 53.8974 49.3869 53.5337 49.0236C53.1701 48.6602 52.6765 48.4548 52.1609 48.4521Z" fill="white"/>
<path d="M43.0309 9.226C45.4264 9.75245 47.5933 11.0183 49.2221 12.8426C50.8507 14.667 51.8578 16.9564 52.0995 19.384C52.1241 19.6479 52.253 19.8915 52.4582 20.0608C52.6633 20.2303 52.9277 20.3118 53.1933 20.2872C53.4587 20.2628 53.7036 20.1346 53.874 19.9306C54.0444 19.7267 54.1263 19.4638 54.1017 19.1997C53.8323 16.3442 52.6547 13.6484 50.7399 11.5033C48.8253 9.35832 46.2729 7.87572 43.4534 7.27068C43.3841 7.25519 43.3132 7.24761 43.2422 7.24807C42.996 7.25187 42.7599 7.34509 42.5781 7.51015C42.3965 7.67519 42.2818 7.90068 42.2558 8.14403C42.2298 8.38738 42.2943 8.63178 42.4371 8.8311C42.5798 9.03043 42.791 9.17091 43.0309 9.226Z" fill="white"/>
<path d="M44.1585 2.79152C47.8888 3.60783 51.2638 5.57649 53.8004 8.41576C56.3372 11.2551 57.9058 14.8194 58.2814 18.5989C58.2933 18.7295 58.3309 18.8565 58.3923 18.9727C58.4537 19.0887 58.5375 19.1918 58.639 19.2755C58.7405 19.3592 58.8576 19.4224 58.9837 19.4609C59.1097 19.4995 59.2423 19.5131 59.3736 19.5006C59.5052 19.4893 59.6334 19.452 59.7505 19.3913C59.8677 19.3304 59.9716 19.2471 60.0562 19.1462C60.1408 19.0452 60.2044 18.9286 60.2435 18.803C60.2825 18.6775 60.2963 18.5455 60.2837 18.4146C59.8858 14.2073 58.1505 10.2354 55.3295 7.07467C52.5084 3.91398 48.7481 1.72889 44.5941 0.836207C44.5244 0.822465 44.4538 0.814897 44.3828 0.813586C44.1322 0.809899 43.8893 0.899462 43.7018 1.0647C43.5142 1.22994 43.3957 1.45891 43.3691 1.70667C43.3427 1.95442 43.4103 2.20307 43.5588 2.40379C43.7072 2.60451 43.9258 2.7428 44.1714 2.79152H44.1585Z" fill="white"/>
<path d="M17.905 9.22609C18.1507 9.17737 18.3692 9.03908 18.5176 8.83836C18.6661 8.63765 18.7337 8.38899 18.7073 8.14123C18.6808 7.89349 18.5621 7.66451 18.3747 7.49928C18.1871 7.33403 17.9442 7.24447 17.6937 7.24816C17.6227 7.24787 17.5518 7.25544 17.4823 7.27077C14.6628 7.87581 12.1105 9.35841 10.1958 11.5034C8.28108 13.6485 7.10355 16.3443 6.83407 19.1998C6.81072 19.464 6.89373 19.7268 7.06487 19.9302C7.14802 20.0321 7.25108 20.1162 7.36785 20.1772C7.48462 20.2384 7.61266 20.2753 7.7442 20.2858C7.87577 20.2986 8.00862 20.2855 8.13506 20.2471C8.2615 20.2086 8.37905 20.1457 8.48089 20.0619C8.58273 19.978 8.66684 19.875 8.7284 19.7587C8.78997 19.6423 8.82777 19.515 8.83957 19.3841C9.08008 16.9566 10.0864 14.667 11.7146 12.8425C13.3428 11.018 15.5096 9.75222 17.905 9.22609Z" fill="white"/>
<path d="M16.7767 2.79152C17.0225 2.7428 17.2409 2.60451 17.3894 2.40379C17.5378 2.20307 17.6055 1.95442 17.579 1.70667C17.5526 1.45891 17.4339 1.22994 17.2464 1.0647C17.0588 0.899462 16.8159 0.809899 16.5654 0.813586C16.4955 0.814719 16.4258 0.82229 16.3573 0.836207C12.2032 1.72889 8.44303 3.91398 5.62195 7.07467C2.80087 10.2354 1.0656 14.2073 0.667714 18.4146C0.654801 18.5454 0.66828 18.6773 0.707352 18.8027C0.746424 18.9282 0.810285 19.0445 0.895226 19.145C0.978377 19.247 1.08148 19.331 1.19825 19.392C1.31501 19.4532 1.44305 19.4901 1.57459 19.5006C1.70617 19.5135 1.83901 19.5003 1.96545 19.462C2.0919 19.4235 2.2094 19.3605 2.31125 19.2767C2.41308 19.1929 2.49722 19.0898 2.5588 18.9735C2.62036 18.8572 2.65816 18.7299 2.66997 18.5989C3.04472 14.8217 4.61079 11.2589 7.14439 8.41982C9.67798 5.58079 13.0494 3.61082 16.7767 2.79152Z" fill="white"/>
<path d="M156.691 23.5145C155.547 23.5033 154.413 23.7171 153.353 24.1437C152.293 24.5702 151.329 25.201 150.515 25.9998V13.3403C150.515 13.3188 150.511 13.2976 150.502 13.2777C150.494 13.2579 150.482 13.24 150.466 13.2249C150.45 13.2099 150.433 13.198 150.412 13.1901C150.392 13.1822 150.371 13.1783 150.348 13.1787H145.425C145.404 13.1783 145.381 13.1822 145.362 13.1901C145.342 13.198 145.323 13.2099 145.307 13.2249C145.293 13.24 145.28 13.2579 145.272 13.2777C145.264 13.2976 145.259 13.3188 145.259 13.3403V47.5147C145.259 47.5362 145.264 47.5575 145.272 47.5773C145.28 47.5971 145.293 47.6151 145.307 47.6302C145.323 47.6453 145.342 47.6571 145.362 47.665C145.381 47.673 145.404 47.6768 145.425 47.6764H150.348C150.371 47.6768 150.392 47.673 150.412 47.665C150.433 47.6571 150.45 47.6453 150.466 47.6302C150.482 47.6151 150.494 47.5971 150.502 47.5773C150.511 47.5575 150.515 47.5362 150.515 47.5147V33.6433C150.512 32.4116 150.981 31.2251 151.826 30.3248C152.672 29.4244 153.829 28.8776 155.065 28.7954C155.712 28.7595 156.358 28.8545 156.967 29.0747C157.575 29.2948 158.133 29.6356 158.605 30.0762C159.076 30.5168 159.454 31.0481 159.713 31.6379C159.973 32.2278 160.109 32.8639 160.114 33.5076V47.5147C160.114 47.5576 160.131 47.5987 160.161 47.629C160.192 47.6593 160.233 47.6764 160.276 47.6764H165.151C165.173 47.6768 165.195 47.673 165.214 47.665C165.234 47.6571 165.253 47.6453 165.268 47.6302C165.284 47.6151 165.296 47.5971 165.304 47.5773C165.313 47.5575 165.317 47.5362 165.317 47.5147V32.2278C165.321 29.9389 164.418 27.7406 162.804 26.1094C161.188 24.4784 158.992 23.546 156.691 23.5145Z" fill="white"/>
<path d="M119.503 22.626H114.601C114.558 22.626 114.516 22.6429 114.485 22.6731C114.454 22.7033 114.436 22.7444 114.436 22.7875V37.9776C114.43 38.6019 114.298 39.2185 114.046 39.7905C113.795 40.3623 113.429 40.8775 112.971 41.305C112.514 41.7324 111.974 42.0632 111.384 42.2773C110.794 42.4914 110.167 42.5845 109.54 42.5508C108.338 42.4766 107.209 41.9478 106.386 41.0729C105.563 40.198 105.108 39.0431 105.113 37.8451V22.7875C105.112 22.7444 105.095 22.7033 105.064 22.6731C105.033 22.6429 104.991 22.626 104.947 22.626H100.046C100.003 22.626 99.9615 22.643 99.9311 22.6734C99.9006 22.7035 99.8834 22.7448 99.8834 22.7875V37.7546C99.8783 40.3215 100.875 42.79 102.665 44.6403C104.454 46.4905 106.896 47.5779 109.475 47.6735C110.789 47.7193 112.099 47.503 113.328 47.0374C114.556 46.572 115.678 45.8665 116.628 44.9629C117.578 44.0594 118.337 42.9758 118.859 41.776C119.381 40.5763 119.656 39.2847 119.669 37.9776V22.7875C119.668 22.7444 119.65 22.7033 119.619 22.6731C119.588 22.6429 119.546 22.626 119.503 22.626Z" fill="white"/>
<path d="M86.3065 13.2241H73.8834C73.7925 13.2241 73.7209 13.2564 73.7209 13.3469L73.7632 47.6054C73.7632 47.6268 73.7675 47.6482 73.7759 47.668C73.7842 47.6879 73.7965 47.7057 73.8119 47.7208C73.8273 47.7359 73.8457 47.7477 73.8658 47.7556C73.8858 47.7636 73.9073 47.7674 73.929 47.767H78.8045C78.8477 47.767 78.889 47.7499 78.9195 47.7196C78.95 47.6893 78.9672 47.6482 78.9672 47.6054V33.8083H86.3292C92.0272 33.8083 96.49 29.2836 96.49 23.5146C96.49 17.7455 92.0044 13.2241 86.3065 13.2241ZM86.2187 28.676H79.2401C79.1539 28.676 79.0713 28.6419 79.0103 28.5813C78.9493 28.5208 78.915 28.4385 78.915 28.3528V22.8714C78.9113 22.0475 78.6307 21.2485 78.1177 20.6013C77.6046 19.9542 76.8888 19.4962 76.084 19.3002C76.0476 19.2914 76.0152 19.2707 75.9923 19.2413C75.9693 19.212 75.9569 19.1758 75.9572 19.1385V18.5084C75.9572 18.4637 75.975 18.421 76.0068 18.3895C76.0385 18.358 76.0814 18.3402 76.1263 18.3402H86.2967C88.9458 18.3402 90.9871 20.2536 91.3187 22.8649C91.4278 23.5888 91.3777 24.3276 91.1716 25.0302C90.9656 25.7329 90.6085 26.3827 90.125 26.9346C89.6416 27.4867 89.0434 27.9277 88.3718 28.2272C87.7001 28.5267 86.9711 28.6776 86.2349 28.6695L86.2187 28.676Z" fill="white"/>
<path d="M122.987 42.2113C123.93 44.2668 126.348 47.7057 132.001 47.7057C138.459 47.7057 141.349 43.9145 141.349 40.1558C141.349 36.0319 138.606 33.5466 132.969 32.5512C130.106 32.0728 128.88 31.1711 128.88 29.5421C128.88 28.0232 130.242 27.0019 132.267 27.0019C134.094 27.0019 135.632 28.0199 136.187 29.5874C136.194 29.6047 136.203 29.6205 136.216 29.6339C136.23 29.6473 136.244 29.6578 136.261 29.665C136.296 29.678 136.333 29.678 136.366 29.665L140.419 27.8648C140.45 27.8512 140.473 27.8267 140.487 27.796C140.499 27.7653 140.5 27.7309 140.487 27.7C139.246 24.5166 136.152 22.6162 132.215 22.6162C126.641 22.6162 123.722 26.1261 123.722 29.5907C123.722 33.6823 126.41 36.1548 131.939 37.1405C134.881 37.7319 136.135 38.6627 136.135 40.2561C136.135 41.9786 134.61 43.0064 132.053 43.0064C131.103 43.0097 130.172 42.7459 129.367 42.2454C128.562 41.7451 127.915 41.0285 127.502 40.1785C127.491 40.1563 127.473 40.1377 127.452 40.1246C127.431 40.1114 127.407 40.1045 127.382 40.1041C127.365 40.0998 127.347 40.0998 127.33 40.1041L123.055 42.0207C123.037 42.0264 123.019 42.0365 123.005 42.0501C122.991 42.0637 122.98 42.0805 122.973 42.099C122.966 42.1175 122.964 42.1373 122.967 42.1568C122.969 42.1764 122.976 42.195 122.987 42.2113Z" fill="white"/>
</svg>
