<svg width="20" height="21" viewBox="0 0 20 21" fill="none" xmlns="http://www.w3.org/2000/svg">
<circle cx="10" cy="10.5" r="10" fill="#7950DD"/>
<path d="M13.3948 8.23063C13.1488 8.08264 12.829 8.08264 12.5584 8.23063L10.6396 9.36521L9.33576 10.1052L7.41695 11.2398C7.17096 11.3878 6.85115 11.3878 6.58054 11.2398L5.05533 10.3518C4.80933 10.2039 4.63712 9.93254 4.63712 9.63654V7.88532C4.63712 7.58933 4.78473 7.31802 5.05533 7.17003L6.55595 6.30674C6.80195 6.15875 7.12173 6.15875 7.39236 6.30674L8.89297 7.17003C9.13896 7.31802 9.31116 7.58933 9.31116 7.88532V9.01992L10.615 8.2553V7.12069C10.615 6.82471 10.4674 6.5534 10.1968 6.4054L7.41695 4.7775C7.17096 4.62951 6.85115 4.62951 6.58054 4.7775L3.75152 6.4054C3.48091 6.5534 3.33331 6.82471 3.33331 7.12069V10.4012C3.33331 10.6971 3.48091 10.9685 3.75152 11.1165L6.58054 12.7444C6.82655 12.8924 7.14637 12.8924 7.41695 12.7444L9.33576 11.6344L10.6396 10.8698L12.5584 9.75988C12.8044 9.61189 13.1242 9.61189 13.3948 9.75988L14.8954 10.6232C15.1414 10.7712 15.3136 11.0425 15.3136 11.3384V13.0897C15.3136 13.3857 15.166 13.657 14.8954 13.805L13.3948 14.6929C13.1488 14.8409 12.829 14.8409 12.5584 14.6929L11.0578 13.8296C10.8118 13.6817 10.6396 13.4103 10.6396 13.1143V11.9797L9.33576 12.7444V13.879C9.33576 14.1749 9.48337 14.4463 9.75399 14.5942L12.583 16.2222C12.829 16.3702 13.1488 16.3702 13.4194 16.2222L16.2485 14.5942C16.4944 14.4463 16.6666 14.1749 16.6666 13.879V10.5985C16.6666 10.3025 16.519 10.0312 16.2485 9.88321L13.3948 8.23063Z" fill="white"/>
</svg>
