<svg width="20" height="21" viewBox="0 0 20 21" fill="none" xmlns="http://www.w3.org/2000/svg">
<circle cx="10" cy="10.5" r="10" fill="#2775CA"/>
<path d="M8.37035 16.4413C8.37035 16.6587 8.2222 16.7312 7.99998 16.7312C5.25924 15.8617 3.33331 13.3982 3.33331 10.5C3.33331 7.60179 5.25924 5.13831 7.99998 4.26885C8.2222 4.19639 8.37035 4.3413 8.37035 4.55867V5.06586C8.37035 5.21077 8.29628 5.35568 8.14813 5.42813C5.99998 6.22514 4.5185 8.18143 4.5185 10.5C4.5185 12.8186 6.07405 14.8473 8.14813 15.5719C8.29628 15.6443 8.37035 15.7892 8.37035 15.9341V16.4413Z" fill="white"/>
<path d="M10.5925 14.6301C10.5925 14.775 10.4444 14.9199 10.2962 14.9199H9.70364C9.5555 14.9199 9.40735 14.775 9.40735 14.6301V13.7606C8.22216 13.6157 7.62957 12.9636 7.40735 12.0217C7.40735 11.8768 7.48142 11.7319 7.62957 11.7319H8.29624C8.44439 11.7319 8.51846 11.8043 8.59253 11.9493C8.74068 12.4564 9.03698 12.8912 9.99994 12.8912C10.7407 12.8912 11.2592 12.5289 11.2592 11.9493C11.2592 11.3696 10.9629 11.1522 9.92587 11.0073C8.37031 10.79 7.62957 10.3552 7.62957 9.1235C7.62957 8.18158 8.37031 7.45703 9.40735 7.31212V6.44265C9.40735 6.29774 9.5555 6.15283 9.70364 6.15283H10.2962C10.4444 6.15283 10.5925 6.29774 10.5925 6.44265V7.31212C11.4814 7.45703 12.074 7.96421 12.2222 8.76122C12.2222 8.90613 12.1481 9.05104 11.9999 9.05104H11.4073C11.2592 9.05104 11.1851 8.97859 11.1111 8.83368C10.9629 8.32649 10.5925 8.10912 9.92587 8.10912C9.18513 8.10912 8.81476 8.4714 8.81476 8.97859C8.81476 9.48577 9.03698 9.7756 10.1481 9.92051C11.7036 10.1379 12.4444 10.5726 12.4444 11.8043C12.4444 12.7463 11.7036 13.5433 10.5925 13.7606V14.6301Z" fill="white"/>
<path d="M11.9999 16.7313C11.7777 16.8038 11.6296 16.6589 11.6296 16.4415V15.9343C11.6296 15.7894 11.7037 15.6445 11.8518 15.5721C13.9999 14.7751 15.4814 12.8188 15.4814 10.5002C15.4814 8.18163 13.9259 6.15288 11.8518 5.42833C11.7037 5.35587 11.6296 5.21096 11.6296 5.06605V4.55886C11.6296 4.3415 11.7777 4.26904 11.9999 4.26904C14.6666 5.13851 16.6666 7.60198 16.6666 10.5002C16.6666 13.3984 14.7407 15.8619 11.9999 16.7313Z" fill="white"/>
</svg>
